<svg xmlns="http://www.w3.org/2000/svg" xmlns:xlink="http://www.w3.org/1999/xlink" viewBox="0 0 261.274 80.562"><defs><linearGradient id="a" y1="40.44" x2="78.687" y2="40.44" gradientUnits="userSpaceOnUse"><stop offset="0" stop-color="#ff593d"/><stop offset="1" stop-color="#ff7751"/></linearGradient></defs><title>full_smaller</title><path d="M39.344.844H0V80.037H39.344c19.677,0,39.343-17.729,39.343-39.591S59.021.844,39.344.844Zm0,57.589a17.993,17.993,0,1,1,18-17.987A17.986,17.986,0,0,1,39.344,58.433Z" fill="url(#a)"/><path d="M119.054.858c11.842,0,17.916,7.179,17.916,17.058v8.835c0,9.878-6.074,17.057-17.916,17.057H100.279V.858Zm7.363,17c0-5.46-2.884-8.344-9.265-8.344h-6.381V35.156h6.381c6.381,0,9.265-2.884,9.265-8.344Zm43.241,17.977H154.135l-2.393,7.977H141.189L156.527.858h10.8l15.339,42.95H172.112Zm-12.946-8.467h10.369l-5.154-16.995ZM216.033.858v8.9h-11.6V43.808H193.883V9.755h-11.6V.858Zm25.545,43.809c-13.007,0-19.695-8.345-19.695-19.573V19.572C221.883,8.344,228.571,0,241.578,0s19.7,8.344,19.7,19.572v5.522C261.274,36.322,254.586,44.667,241.578,44.667Zm0-35.894c-6.135,0-9.142,4.112-9.142,10.247v6.626c0,6.136,3.007,10.247,9.142,10.247s9.142-4.111,9.142-10.247V19.02C250.72,12.885,247.714,8.773,241.578,8.773ZM109.69,75.244a4.813,4.813,0,0,0,5.2-4.868h5.954c-.075,5.542-4.156,10.186-11.084,10.186-8.088,0-11.982-5.093-11.982-11.908V65.209c0-6.815,3.894-11.907,11.982-11.907,6.928,0,11.009,4.642,11.084,10.184h-5.954a4.813,4.813,0,0,0-5.2-4.868c-3.895,0-5.468,2.584-5.468,6.291v4.044C104.222,72.66,105.8,75.244,109.69,75.244Zm37.055-21.419h5.917V80.037h-6.178V66.183l-4.12,8.012h-5.092l-4.081-8.012V80.037h-6.179V53.825h5.916l6.89,14.267ZM169.51,80.562c-6.291,0-10.522-3-10.522-8.276v-.712h6.178V72.1c0,2.209,1.423,3.557,4.381,3.557,2.659,0,4.419-1.086,4.419-3.108a2.151,2.151,0,0,0-1.8-2.321l-6.553-1.648c-4.082-1.011-6.179-2.808-6.179-7.077,0-5.205,3.707-8.2,9.923-8.2,5.879,0,9.624,3.182,9.624,7.975v.637H173.03v-.449c0-1.761-.974-3.221-3.67-3.221-2.247,0-3.669.786-3.669,2.658a1.994,1.994,0,0,0,1.685,2.135l6.964,1.872c4.194,1.123,5.879,3.445,5.879,7.077C180.219,77.229,175.576,80.562,169.51,80.562Z" fill="#ff7751"/></svg>