<?xml version="1.0" encoding="utf-8"?>
<!-- Generator: Adobe Illustrator 23.0.1, SVG Export Plug-In . SVG Version: 6.00 Build 0)  -->
<svg version="1.1" id="Linkedin" xmlns="http://www.w3.org/2000/svg" xmlns:xlink="http://www.w3.org/1999/xlink" x="0px" y="0px"
	 viewBox="0 0 400 400" style="enable-background:new 0 0 400 400;" xml:space="preserve">
<style type="text/css">
	.st0{fill:#FFFFFF;}
</style>
<path id="linkedin-path" class="st0" d="M200,0C89.6,0,0,89.6,0,200s89.6,200,200,200s200-89.6,200-200S310.4,0,200,0z M141.9,302.3
	H93.2V155.8h48.7V302.3z M117.5,135.8h-0.3c-16.3,0-26.9-11.3-26.9-25.3c0-14.4,10.9-25.3,27.6-25.3s26.9,10.9,27.2,25.3
	C145.1,124.5,134.5,135.8,117.5,135.8z M317.5,302.3h-48.7v-78.4c0-19.7-7.1-33.1-24.7-33.1c-13.5,0-21.5,9.1-25,17.8
	c-1.3,3.1-1.6,7.5-1.6,11.9v81.8h-48.7c0,0,0.6-132.8,0-146.5h48.7v20.7c6.5-10,18.1-24.2,43.9-24.2c32,0,56.1,20.9,56.1,66V302.3z"
	/>
</svg>
