<svg xmlns="http://www.w3.org/2000/svg" x="0px" y="0px"
width="100" height="100"
viewBox="0 0 172 172"
style=" fill:#000000;"><g fill="none" fill-rule="nonzero" stroke="none" stroke-width="1" stroke-linecap="butt" stroke-linejoin="miter" stroke-miterlimit="10" stroke-dasharray="" stroke-dashoffset="0" font-family="none" font-weight="none" font-size="none" text-anchor="none" style="mix-blend-mode: normal"><path d="M0,172v-172h172v172z" fill="none"></path><g><path d="M43,51.6l6.2694,81.49876c0.344,4.4806 4.07984,7.94124 8.5742,7.94124h56.3128c4.49436,0 8.2302,-3.46064 8.5742,-7.94124l6.2694,-81.49876" fill="#f37e98"></path><path d="M111.8,65.36v60.2c0,2.838 -2.322,5.16 -5.16,5.16c-2.838,0 -5.16,-2.322 -5.16,-5.16v-60.2c0,-2.838 2.322,-5.16 5.16,-5.16c2.838,0 5.16,2.322 5.16,5.16zM91.16,65.36v60.2c0,2.838 -2.322,5.16 -5.16,5.16c-2.838,0 -5.16,-2.322 -5.16,-5.16v-60.2c0,-2.838 2.322,-5.16 5.16,-5.16c2.838,0 5.16,2.322 5.16,5.16zM70.52,65.36v60.2c0,2.838 -2.322,5.16 -5.16,5.16c-2.838,0 -5.16,-2.322 -5.16,-5.16v-60.2c0,-2.838 2.322,-5.16 5.16,-5.16c2.838,0 5.16,2.322 5.16,5.16zM132.44,41.28h-6.88l-3.1562,-5.25976c-1.24356,-2.0726 -3.483,-3.34024 -5.8996,-3.34024h-61.0084c-2.4166,0 -4.65604,1.26764 -5.8996,3.34024l-3.1562,5.25976h-6.88c-2.85004,0 -5.16,2.30996 -5.16,5.16c0,2.85004 2.30996,5.16 5.16,5.16h92.88c2.85004,0 5.16,-2.30996 5.16,-5.16c0,-2.85004 -2.30996,-5.16 -5.16,-5.16z" fill="#f15b6c"></path><path d="M114.1564,142.76h-56.3128c-5.35952,0 -9.87968,-4.18648 -10.28904,-9.5288l-6.2694,-81.49876l3.42968,-0.26488l6.2694,81.50048c0.27348,3.56212 3.28692,6.35196 6.85936,6.35196h56.3128c3.57244,0 6.58588,-2.78984 6.85936,-6.35024l6.2694,-81.5022l3.42968,0.26488l-6.2694,81.50048c-0.41108,5.3406 -4.93124,9.52708 -10.28904,9.52708zM96.32,34.4c-0.94944,0 -1.72,-0.76884 -1.72,-1.72v-5.16c0,-0.94944 -0.77228,-1.72 -1.72,-1.72h-13.76c-0.94772,0 -1.72,0.77056 -1.72,1.72v5.16c0,0.95116 -0.77056,1.72 -1.72,1.72c-0.94944,0 -1.72,-0.76884 -1.72,-1.72v-5.16c0,-2.84488 2.31512,-5.16 5.16,-5.16h13.76c2.84488,0 5.16,2.31512 5.16,5.16v5.16c0,0.95116 -0.77056,1.72 -1.72,1.72z" fill="#1f212b"></path><path d="M132.44,53.32h-92.88c-3.79432,0 -6.88,-3.08568 -6.88,-6.88c0,-3.79432 3.08568,-6.88 6.88,-6.88h5.90648l2.65396,-4.42384c1.54456,-2.57484 4.37052,-4.17616 7.37536,-4.17616h61.01012c3.00484,0 5.82908,1.60132 7.37364,4.17616l2.65396,4.42384h5.90648c3.79432,0 6.88,3.08568 6.88,6.88c0,3.79432 -3.08568,6.88 -6.88,6.88zM39.56,43c-1.89716,0 -3.44,1.54284 -3.44,3.44c0,1.89716 1.54284,3.44 3.44,3.44h92.88c1.89716,0 3.44,-1.54284 3.44,-3.44c0,-1.89716 -1.54284,-3.44 -3.44,-3.44h-6.88c-0.60372,0 -1.16444,-0.3182 -1.47404,-0.8342l-3.1562,-5.25976c-0.92708,-1.54456 -2.623,-2.50604 -4.42556,-2.50604h-61.0084c-1.80256,0 -3.49676,0.96148 -4.42384,2.50604l-3.1562,5.25976c-0.31132,0.516 -0.87204,0.8342 -1.47576,0.8342z" fill="#1f212b"></path><path d="M105.78,43h-61.92c-0.47472,0 -0.86,-0.38528 -0.86,-0.86c0,-0.47472 0.38528,-0.86 0.86,-0.86h61.92c0.47472,0 0.86,0.38528 0.86,0.86c0,0.47472 -0.38528,0.86 -0.86,0.86zM126.42,43h-8.6c-0.47472,0 -0.86,-0.38528 -0.86,-0.86c0,-0.47472 0.38528,-0.86 0.86,-0.86h8.6c0.47472,0 0.86,0.38528 0.86,0.86c0,0.47472 -0.38528,0.86 -0.86,0.86zM114.38,43h-3.44c-0.47472,0 -0.86,-0.38528 -0.86,-0.86c0,-0.47472 0.38528,-0.86 0.86,-0.86h3.44c0.47472,0 0.86,0.38528 0.86,0.86c0,0.47472 -0.38528,0.86 -0.86,0.86zM86,130.72c-2.84488,0 -5.16,-2.31512 -5.16,-5.16v-60.2c0,-2.84488 2.31512,-5.16 5.16,-5.16c2.84488,0 5.16,2.31512 5.16,5.16v43.86c0,0.47472 -0.38528,0.86 -0.86,0.86c-0.47472,0 -0.86,-0.38528 -0.86,-0.86v-43.86c0,-1.89716 -1.54284,-3.44 -3.44,-3.44c-1.89716,0 -3.44,1.54284 -3.44,3.44v60.2c0,1.89716 1.54284,3.44 3.44,3.44c1.89716,0 3.44,-1.54284 3.44,-3.44v-6.02c0,-0.47472 0.38528,-0.86 0.86,-0.86c0.47472,0 0.86,0.38528 0.86,0.86v6.02c0,2.84488 -2.31512,5.16 -5.16,5.16zM106.64,130.72c-2.84488,0 -5.16,-2.31512 -5.16,-5.16v-43.86c0,-0.47472 0.38528,-0.86 0.86,-0.86c0.47472,0 0.86,0.38528 0.86,0.86v43.86c0,1.89716 1.54284,3.44 3.44,3.44c1.89716,0 3.44,-1.54284 3.44,-3.44v-60.2c0,-1.89716 -1.54284,-3.44 -3.44,-3.44c-1.89716,0 -3.44,1.54284 -3.44,3.44v2.58c0,0.47472 -0.38528,0.86 -0.86,0.86c-0.47472,0 -0.86,-0.38528 -0.86,-0.86v-2.58c0,-2.84488 2.31512,-5.16 5.16,-5.16c2.84488,0 5.16,2.31512 5.16,5.16v60.2c0,2.84488 -2.31512,5.16 -5.16,5.16z" fill="#1f212b"></path><path d="M102.34,77.4c-0.47472,0 -0.86,-0.38528 -0.86,-0.86v-3.44c0,-0.47472 0.38528,-0.86 0.86,-0.86c0.47472,0 0.86,0.38528 0.86,0.86v3.44c0,0.47472 -0.38528,0.86 -0.86,0.86zM65.36,130.72c-2.84488,0 -5.16,-2.31512 -5.16,-5.16v-60.2c0,-2.84488 2.31512,-5.16 5.16,-5.16c2.84488,0 5.16,2.31512 5.16,5.16v60.2c0,2.84488 -2.31512,5.16 -5.16,5.16zM65.36,61.92c-1.89716,0 -3.44,1.54284 -3.44,3.44v60.2c0,1.89716 1.54284,3.44 3.44,3.44c1.89716,0 3.44,-1.54284 3.44,-3.44v-60.2c0,-1.89716 -1.54284,-3.44 -3.44,-3.44z" fill="#1f212b"></path></g></g></svg>