<svg xmlns="http://www.w3.org/2000/svg" x="0px" y="0px"
width="48" height="48"
viewBox="0 0 172 172"
style=" fill:#000000;"><g fill="none" fill-rule="nonzero" stroke="none" stroke-width="1" stroke-linecap="butt" stroke-linejoin="miter" stroke-miterlimit="10" stroke-dasharray="" stroke-dashoffset="0" font-family="none" font-weight="none" font-size="none" text-anchor="none" style="mix-blend-mode: normal"><path d="M0,172v-172h172v172z" fill="none"></path><g fill="#ffffff"><path d="M26.81901,14.33333l-12.47168,0.09798c-2.58176,-0.01431 -4.97172,1.36101 -6.25656,3.60041c-1.28484,2.2394 -1.26599,4.99676 0.04934,7.21838c1.31534,2.22162 3.72387,3.56415 6.30519,3.51454l7.67057,-0.05599l23.59961,56.63346l-8.5804,13.71745c-6.00818,9.59433 1.29744,22.77376 12.61165,22.77376h79.25326c2.58456,0.03655 4.98858,-1.32136 6.29153,-3.55376c1.30295,-2.2324 1.30295,-4.99342 0,-7.22582c-1.30295,-2.2324 -3.70697,-3.59031 -6.29153,-3.55376h-79.25326c-0.79745,0 -0.8894,-0.15716 -0.46191,-0.83985c0.00467,0 0.00933,0 0.014,0l8.42643,-13.49349h53.51204c5.203,0 10.005,-2.8258 12.52767,-7.37663l25.8112,-46.48535c2.65883,-4.773 -0.79584,-10.63802 -6.25684,-10.63802h-105.69434l-4.12923,-9.92415c-1.12177,-2.69082 -3.76158,-4.43409 -6.67676,-4.40918zM50.16667,129c-7.91608,0 -14.33333,6.41725 -14.33333,14.33333c0,7.91608 6.41725,14.33333 14.33333,14.33333c7.91608,0 14.33333,-6.41725 14.33333,-14.33333c0,-7.91608 -6.41725,-14.33333 -14.33333,-14.33333zM121.83333,129c-7.91608,0 -14.33333,6.41725 -14.33333,14.33333c0,7.91608 6.41725,14.33333 14.33333,14.33333c7.91608,0 14.33333,-6.41725 14.33333,-14.33333c0,-7.91608 -6.41725,-14.33333 -14.33333,-14.33333z"></path></g></g></svg>